<svg xmlns="http://www.w3.org/2000/svg" width="23.733" height="20" viewBox="0 0 23.733 20">
  <path id="delete-left-svgrepo-com" d="M6.31,3.544A4,4,0,0,1,9.467,2H21a2.894,2.894,0,0,1,2.162.995A3.4,3.4,0,0,1,24,5.25v13.5a3.4,3.4,0,0,1-.838,2.255A2.894,2.894,0,0,1,21,22H9.467A4,4,0,0,1,6.31,20.456L.688,13.228a2,2,0,0,1,0-2.456Zm3.94,3.5a1,1,0,0,1,1.414,0l2.828,2.828,2.828-2.828a1,1,0,0,1,1.414,0l.707.707a1,1,0,0,1,0,1.414l-2.828,2.828,2.828,2.828s.391,1.024,0,1.414l-.707.707a1,1,0,0,1-1.414,0l-2.828-2.828-2.828,2.828a1,1,0,0,1-1.414,0l-.707-.707a1,1,0,0,1,0-1.414l2.828-2.828L9.543,9.164a1,1,0,0,1,0-1.414Z" transform="translate(-0.267 -2)" fill="red" fill-rule="evenodd"/>
</svg>
